# xmcd CD database file
#
# Track frame offsets:
#	150
#	25175
#	50105
#	71498
#	92933
#	121683
#	140015
#	169633
#	189023
#	199700
#
# Disc length: 2875 seconds
#
# Revision: 0
# Processed by: cddbd v1.4PL0 Copyright (c) Steve Scherf et al.
# Submitted via: CDex 1.50Beta7
#
DISCID=850b390a
DTITLE=Leni Stern - Ten Songs
DYEAR=1992
DGENRE=Jazz
TTITLE0=Miss V
TTITLE1=Talk To Me
TTITLE2=Mary Ellen
TTITLE3=If Anything
TTITLE4=Shooting Star
TTITLE5=Trouble
TTITLE6=Our Man's Gone Now
TTITLE7=Sparrows
TTITLE8=More Trouble
TTITLE9=Glass
EXTD=YEAR: 1992
EXTT0=
EXTT1=
EXTT2=
EXTT3=
EXTT4=
EXTT5=
EXTT6=
EXTT7=
EXTT8=
EXTT9=
PLAYORDER=
